<svg width="70" height="70" viewBox="0 0 70 70" fill="none" xmlns="http://www.w3.org/2000/svg">
<mask id="mask0" mask-type="alpha" maskUnits="userSpaceOnUse" x="1" y="2" width="69" height="67">
<path fill-rule="evenodd" clip-rule="evenodd" d="M31.3693 4.57263L26.0692 11.89C25.0623 13.2783 23.422 14.0681 21.7082 13.9888L12.6828 13.5711C9.22135 13.4101 6.61151 16.6803 7.53901 20.0205L9.95635 28.7261C10.4148 30.3805 10.0112 32.155 8.87835 33.4453L2.92485 40.24C0.639347 42.8475 1.57035 46.9261 4.76118 48.283L13.0725 51.8226C14.6522 52.4946 15.7862 53.9168 16.0907 55.6061L17.6913 64.4985C18.305 67.9086 22.0733 69.7251 25.123 68.0766L33.0738 63.7833C34.5847 62.9678 36.4023 62.9678 37.9132 63.7833L45.864 68.0766C48.9137 69.7251 52.6832 67.9086 53.2957 64.4985L54.8963 55.6061C55.2008 53.9168 56.336 52.4946 57.9145 51.8226L66.227 48.283C69.4167 46.9261 70.3477 42.8475 68.0633 40.24L62.1087 33.4453C60.977 32.155 60.5722 30.3805 61.0318 28.7261L63.448 20.0205C64.3755 16.6803 61.7668 13.4101 58.3042 13.5711L49.28 13.9888C47.565 14.0681 45.9247 13.2783 44.9178 11.89L39.6177 4.57263C38.6015 3.16913 37.0475 2.4668 35.4935 2.4668C33.9395 2.4668 32.3855 3.16913 31.3693 4.57263Z" fill="white"/>
</mask>
<g mask="url(#mask0)">
<path fill-rule="evenodd" clip-rule="evenodd" d="M-4.46342 58.8852L-20.9998 42.3477L38.8479 -17.5L55.3854 -0.963667L-4.46342 58.8852Z" fill="#002144"/>
</g>
<mask id="mask1" mask-type="alpha" maskUnits="userSpaceOnUse" x="1" y="2" width="69" height="67">
<path fill-rule="evenodd" clip-rule="evenodd" d="M31.3693 4.57263L26.0692 11.89C25.0623 13.2783 23.422 14.0681 21.7082 13.9888L12.6828 13.5711C9.22135 13.4101 6.61151 16.6803 7.53901 20.0205L9.95635 28.7261C10.4148 30.3805 10.0112 32.155 8.87835 33.4453L2.92485 40.24C0.639347 42.8475 1.57035 46.9261 4.76118 48.283L13.0725 51.8226C14.6522 52.4946 15.7862 53.9168 16.0907 55.6061L17.6913 64.4985C18.305 67.9086 22.0733 69.7251 25.123 68.0766L33.0738 63.7833C34.5847 62.9678 36.4023 62.9678 37.9132 63.7833L45.864 68.0766C48.9137 69.7251 52.6832 67.9086 53.2957 64.4985L54.8963 55.6061C55.2008 53.9168 56.336 52.4946 57.9145 51.8226L66.227 48.283C69.4167 46.9261 70.3477 42.8475 68.0633 40.24L62.1087 33.4453C60.977 32.155 60.5722 30.3805 61.0318 28.7261L63.448 20.0205C64.3755 16.6803 61.7668 13.4101 58.3042 13.5711L49.28 13.9888C47.565 14.0681 45.9247 13.2783 44.9178 11.89L39.6177 4.57263C38.6015 3.16913 37.0475 2.4668 35.4935 2.4668C33.9395 2.4668 32.3855 3.16913 31.3693 4.57263Z" fill="white"/>
</mask>
<g mask="url(#mask1)">
<path fill-rule="evenodd" clip-rule="evenodd" d="M12.0739 75.4225L-4.46362 58.885L55.3852 -0.963867L71.9227 15.5736L12.0739 75.4225Z" fill="#E71D73"/>
</g>
<mask id="mask2" mask-type="alpha" maskUnits="userSpaceOnUse" x="1" y="2" width="69" height="67">
<path fill-rule="evenodd" clip-rule="evenodd" d="M31.3693 4.57263L26.0692 11.89C25.0623 13.2783 23.422 14.0681 21.7082 13.9888L12.6828 13.5711C9.22135 13.4101 6.61151 16.6803 7.53901 20.0205L9.95635 28.7261C10.4148 30.3805 10.0112 32.155 8.87835 33.4453L2.92485 40.24C0.639347 42.8475 1.57035 46.9261 4.76118 48.283L13.0725 51.8226C14.6522 52.4946 15.7862 53.9168 16.0907 55.6061L17.6913 64.4985C18.305 67.9086 22.0733 69.7251 25.123 68.0766L33.0738 63.7833C34.5847 62.9678 36.4023 62.9678 37.9132 63.7833L45.864 68.0766C48.9137 69.7251 52.6832 67.9086 53.2957 64.4985L54.8963 55.6061C55.2008 53.9168 56.336 52.4946 57.9145 51.8226L66.227 48.283C69.4167 46.9261 70.3477 42.8475 68.0633 40.24L62.1087 33.4453C60.977 32.155 60.5722 30.3805 61.0318 28.7261L63.448 20.0205C64.3755 16.6803 61.7668 13.4101 58.3042 13.5711L49.28 13.9888C47.565 14.0681 45.9247 13.2783 44.9178 11.89L39.6177 4.57263C38.6015 3.16913 37.0475 2.4668 35.4935 2.4668C33.9395 2.4668 32.3855 3.16913 31.3693 4.57263Z" fill="white"/>
</mask>
<g mask="url(#mask2)">
<path fill-rule="evenodd" clip-rule="evenodd" d="M28.6112 91.9596L12.0737 75.4221L71.9226 15.5732L88.4601 32.1107L28.6112 91.9596Z" fill="#F1C830"/>
</g>
<mask id="mask3" mask-type="alpha" maskUnits="userSpaceOnUse" x="18" y="3" width="39" height="37">
<path fill-rule="evenodd" clip-rule="evenodd" d="M32.9931 3.11865L56.9137 27.0393L44.5389 39.4129L18.989 13.8631L21.7084 13.9889C23.4222 14.0683 25.0625 13.2784 26.0694 11.8901L31.3695 4.57278C31.8205 3.94996 32.3773 3.46522 32.9931 3.11865Z" fill="white"/>
</mask>
<g mask="url(#mask3)">
<path fill-rule="evenodd" clip-rule="evenodd" d="M56.9136 27.0392L44.5388 39.4129L8.24146 3.11556L20.6151 -9.25928L56.9136 27.0392Z" fill="url(#paint0_linear)"/>
</g>
<defs>
<linearGradient id="paint0_linear" x1="-25.4561" y1="10.7652" x2="27.6258" y2="59.1818" gradientUnits="userSpaceOnUse">
<stop stop-color="white" stop-opacity="0.8"/>
<stop offset="1" stop-color="white" stop-opacity="0.01"/>
</linearGradient>
</defs>
</svg>
